<svg width="21" height="20" viewBox="0 0 21 20" fill="#676E8B"  xmlns="http://www.w3.org/2000/svg">
<g clip-path="url(#clip0_163_14)">
<path d="M7.845 0H1.595C0.790863 0 0.136719 0.654144 0.136719 1.45828V5.20828C0.136719 6.01257 0.790863 6.66672 1.595 6.66672H7.845C8.64929 6.66672 9.30344 6.01257 9.30344 5.20828V1.45828C9.30344 0.654144 8.64929 0 7.845 0Z" fill="#676E8B"/>
<path d="M7.845 8.33325H1.595C0.790863 8.33325 0.136719 8.9874 0.136719 9.79169V18.5417C0.136719 19.3458 0.790863 20 1.595 20H7.845C8.64929 20 9.30344 19.3458 9.30344 18.5417V9.79169C9.30344 8.9874 8.64929 8.33325 7.845 8.33325Z" fill="#676E8B"/>
<path d="M18.6784 13.3333H12.4284C11.6241 13.3333 10.97 13.9874 10.97 14.7917V18.5417C10.97 19.3458 11.6241 20 12.4284 20H18.6784C19.4825 20 20.1367 19.3458 20.1367 18.5417V14.7917C20.1367 13.9874 19.4825 13.3333 18.6784 13.3333Z" fill="#676E8B"/>
<path d="M18.6784 0H12.4284C11.6241 0 10.97 0.654144 10.97 1.45828V10.2083C10.97 11.0126 11.6241 11.6667 12.4284 11.6667H18.6784C19.4825 11.6667 20.1367 11.0126 20.1367 10.2083V1.45828C20.1367 0.654144 19.4825 0 18.6784 0V0Z" fill="#676E8B"/>
</g>
<defs>
<clipPath id="clip0_163_14">
<rect width="20" height="20" fill="white" transform="translate(0.136719)"/>
</clipPath>
</defs>
</svg>
