<svg width="26" height="25" viewBox="0 0 26 25" fill="none" xmlns="http://www.w3.org/2000/svg">
<path d="M22.9512 3.90625H22.2188V2.19727C22.2188 0.985693 21.2331 0 20.0215 0C18.8099 0 17.8242 0.985693 17.8242 2.19727V2.79712C17.8242 3.5561 17.3146 4.23184 16.5847 4.44033L15.8711 4.64424V4.63867C15.8711 4.23418 15.5432 3.90625 15.1387 3.90625H12.209C11.8045 3.90625 11.4766 4.23418 11.4766 4.63867V7.91016H2.83398C1.62241 7.91016 0.636719 8.89585 0.636719 10.1074V24.2676C0.636719 24.5377 0.7854 24.7859 1.02354 24.9133C1.13184 24.9713 1.25059 25 1.36909 25C1.51118 25 1.65288 24.9587 1.77539 24.877L4.52061 23.0469H18.459C19.6706 23.0469 20.6562 22.0612 20.6562 20.8496V13.1836H22.9512C24.432 13.1836 25.6367 11.9789 25.6367 10.498V6.5918C25.6367 5.11099 24.432 3.90625 22.9512 3.90625ZM12.9414 5.37109H14.4062V11.7188H12.9414V5.37109ZM19.1914 20.8496C19.1914 21.2535 18.8628 21.582 18.459 21.582H4.29883C4.15425 21.582 4.01289 21.6249 3.89258 21.7051L2.10156 22.8991V10.1074C2.10156 9.70356 2.43013 9.375 2.83398 9.375H11.4766V12.4512C11.4766 12.8557 11.8045 13.1836 12.209 13.1836H15.1387C15.5149 13.1836 15.8246 12.8997 15.866 12.5345C16.5185 12.9506 17.2857 13.1836 18.0835 13.1836H19.1914V20.8496ZM24.1719 10.498C24.1719 11.1711 23.6243 11.7188 22.9512 11.7188H18.0835C17.193 11.7188 16.3613 11.2695 15.8711 10.5349V6.16772L16.9871 5.84888C18.3425 5.46162 19.2891 4.20669 19.2891 2.79712V2.19727C19.2891 1.79341 19.6176 1.46484 20.0215 1.46484C20.4253 1.46484 20.7539 1.79341 20.7539 2.19727V4.63867C20.7539 5.04316 21.0818 5.37109 21.4863 5.37109H22.9512C23.6243 5.37109 24.1719 5.9187 24.1719 6.5918V10.498Z" fill="#676E8B"/>
<path d="M4.29883 13.7695H9.18164C9.58613 13.7695 9.91406 13.4416 9.91406 13.0371C9.91406 12.6326 9.58613 12.3047 9.18164 12.3047H4.29883C3.89434 12.3047 3.56641 12.6326 3.56641 13.0371C3.56641 13.4416 3.89434 13.7695 4.29883 13.7695Z" fill="#676E8B"/>
<path d="M16.9941 15.2344H4.29883C3.89434 15.2344 3.56641 15.5623 3.56641 15.9668C3.56641 16.3713 3.89434 16.6992 4.29883 16.6992H16.9941C17.3986 16.6992 17.7266 16.3713 17.7266 15.9668C17.7266 15.5623 17.3986 15.2344 16.9941 15.2344Z" fill="#676E8B"/>
<path d="M16.9941 18.1641H4.29883C3.89434 18.1641 3.56641 18.492 3.56641 18.8965C3.56641 19.301 3.89434 19.6289 4.29883 19.6289H16.9941C17.3986 19.6289 17.7266 19.301 17.7266 18.8965C17.7266 18.492 17.3986 18.1641 16.9941 18.1641Z" fill="#676E8B"/>
</svg>
