<svg width="25" height="26" viewBox="0 0 25 26" fill="none" xmlns="http://www.w3.org/2000/svg">
<path d="M23.3762 15.0576H23.0209V13.1134V11.8225C23.0209 11.3104 22.7687 10.8569 22.3836 10.5814V10.1409C22.3836 9.50191 21.8693 8.98212 21.2372 8.98212H20.9719L21.987 7.47649C22.3272 6.97183 22.1978 6.28141 21.6986 5.93744L14.8108 1.19269C14.569 1.02605 14.2775 0.96455 13.9898 1.01972C13.7022 1.0748 13.4531 1.23975 13.2883 1.48425L7.34327 10.3025H5.68893L6.08806 6.21831C6.09255 6.17228 6.12214 6.13239 6.16341 6.11669C6.67764 5.9207 7.12328 5.5547 7.41821 5.08614C7.44144 5.04925 7.48526 5.02815 7.53061 5.03279L10.1254 5.29192C10.3114 5.31015 10.4769 5.17319 10.4953 4.98522C10.5137 4.79725 10.3778 4.62986 10.1919 4.61129L7.59711 4.35217C7.29592 4.32236 7.00869 4.46265 6.84731 4.71897C6.63048 5.0635 6.30281 5.33256 5.92473 5.47666C5.64014 5.58512 5.44473 5.8435 5.41468 6.15105L5.00901 10.3025H4.57761L5.20883 3.84292C5.23155 3.61042 5.43685 3.4396 5.66713 3.4629L10.9107 3.9865C11.0966 4.00464 11.2622 3.86776 11.2806 3.67979C11.2989 3.49182 11.1631 3.32443 10.9772 3.30587L5.73363 2.78227C5.13246 2.72232 4.59486 3.16787 4.53546 3.77565L4.02666 8.98207H3.16019C2.52813 8.98207 2.01386 9.50187 2.01386 10.1408V10.4413C1.49676 10.6819 1.13672 11.2103 1.13672 11.8225V13.1134V22.1891V23.48C1.13672 24.3182 1.81125 25 2.64044 25H21.5172C22.3463 25 23.0209 24.3182 23.0209 23.48V22.1891V20.245H23.3762C23.7956 20.245 24.1367 19.9002 24.1367 19.4763V15.8264C24.1368 15.4024 23.7956 15.0576 23.3762 15.0576ZM21.2372 9.66602C21.4963 9.66602 21.7069 9.87903 21.7069 10.1409V10.3151C21.6447 10.3071 21.5815 10.3026 21.5172 10.3026H20.0817L20.5108 9.66607L21.2372 9.66602ZM13.8474 1.86938C13.9105 1.77587 14.0058 1.71277 14.1157 1.69168C14.142 1.68666 14.1684 1.68413 14.1946 1.68413C14.278 1.68413 14.3594 1.70935 14.4298 1.75782L21.3175 6.50252C21.5085 6.6341 21.558 6.89819 21.4279 7.09122L19.263 10.3024H18.7434L19.8048 8.72805C19.977 8.47272 19.9912 8.14779 19.8417 7.87999C19.6432 7.52421 19.5627 7.10528 19.6151 6.70033C19.654 6.39906 19.5229 6.10497 19.2728 5.93275L15.7022 3.47312C15.4522 3.30085 15.1334 3.28506 14.8703 3.43192C14.5167 3.62926 14.1015 3.70674 13.7013 3.65012C13.4045 3.60803 13.1035 3.74349 12.9339 3.99498L8.68163 10.3025H8.16207L13.8474 1.86938ZM13.9964 7.67679C12.5231 7.67679 11.3137 8.83802 11.2151 10.3025H9.50033L13.493 4.38015C13.5156 4.34645 13.5533 4.32639 13.5919 4.32639C13.5971 4.32639 13.6022 4.32676 13.6074 4.32747C14.1517 4.40443 14.7163 4.29915 15.1972 4.0307C15.2351 4.00951 15.2837 4.01256 15.3212 4.03834L18.8918 6.49802C18.9292 6.5238 18.9497 6.56842 18.9442 6.61174C18.8729 7.16247 18.9824 7.73219 19.2524 8.21604C19.2741 8.2549 19.2714 8.30468 19.2458 8.34288L17.9247 10.3024H16.7778C16.6791 8.83802 15.4698 7.67679 13.9964 7.67679ZM16.0993 10.3025H11.8935C11.9904 9.21555 12.8963 8.36079 13.9964 8.36079C15.0965 8.36074 16.0024 9.21555 16.0993 10.3025ZM2.69048 10.1408C2.69048 9.87898 2.90115 9.66598 3.16019 9.66598H3.95983L3.89765 10.3025H2.69048V10.1408ZM1.81334 11.8225C1.81334 11.3615 2.18437 10.9865 2.64044 10.9865H21.5172C21.9733 10.9865 22.3442 11.3615 22.3442 11.8225V12.7714H1.81334V11.8225ZM22.3442 21.8472H3.06444C2.87755 21.8472 2.72615 22.0003 2.72615 22.1892C2.72615 22.378 2.8776 22.5311 3.06444 22.5311H22.3442V23.4801C22.3442 23.941 21.9733 24.3161 21.5172 24.3161H2.64044C2.18437 24.3161 1.81334 23.941 1.81334 23.4801V22.5311H3.63773C3.82461 22.5311 3.97602 22.378 3.97602 22.1892C3.97602 22.0003 3.82457 21.8472 3.63773 21.8472H1.81334V13.4554H22.3442V15.0576H19.1276C18.114 15.0576 17.2361 15.6547 16.8194 16.5192C16.818 16.5221 16.8164 16.5249 16.815 16.5278C16.8115 16.5352 16.8084 16.5428 16.805 16.5502C16.7554 16.6567 16.7122 16.767 16.6771 16.8809L16.6769 16.8818C16.602 17.125 16.5616 17.3834 16.5616 17.6513C16.5616 19.0815 17.7126 20.245 19.1275 20.245H22.3442L22.3442 21.8472ZM23.4601 19.4762C23.4601 19.523 23.4225 19.5611 23.3762 19.5611H22.6825H19.1276C18.4113 19.5611 17.7869 19.1561 17.4666 18.5609C17.452 18.5338 17.4381 18.5063 17.4248 18.4785C17.3982 18.4229 17.3743 18.3658 17.3531 18.3073C17.2788 18.1026 17.2382 17.8816 17.2382 17.6513C17.2382 17.4209 17.2788 17.2 17.3531 16.9953C17.3743 16.9369 17.3983 16.8797 17.4248 16.824C17.4381 16.7962 17.452 16.7688 17.4666 16.7417C17.7869 16.1465 18.4113 15.7415 19.1276 15.7415H22.6825H23.3762C23.4224 15.7415 23.4601 15.7796 23.4601 15.8264V19.4762Z" fill="#676E8B" stroke="#676E8B" stroke-width="0.3"/>
</svg>
