<svg width="18" height="24" viewBox="0 0 18 24" fill="none" xmlns="http://www.w3.org/2000/svg">
<path fill-rule="evenodd" clip-rule="evenodd" d="M7.61542 2.09515C7.61542 2.46524 7.31538 2.76528 6.9453 2.76528C6.57521 2.76528 6.27517 2.46528 6.27517 2.09515V1.39058C6.27517 1.0205 6.57521 0.720459 6.9453 0.720459C7.31538 0.720459 7.61542 1.0205 7.61542 1.39058V2.09515ZM10.78 3.96113C10.6492 4.09198 10.4777 4.15743 10.3062 4.15743C10.1347 4.15743 9.96323 4.09198 9.83233 3.96113C9.57063 3.69943 9.57063 3.2751 9.83233 3.01344L10.3305 2.51523C10.5923 2.25357 11.0166 2.25357 11.2782 2.51523C11.5399 2.77693 11.5399 3.20125 11.2782 3.46292L10.78 3.96113ZM11.0281 6.84823C11.0281 7.21832 11.3282 7.51836 11.6983 7.51836H12.4028C12.7729 7.51836 13.0729 7.21832 13.0729 6.84823C13.0729 6.47815 12.7729 6.17811 12.4028 6.17811H11.6983C11.3282 6.17811 11.0281 6.47815 11.0281 6.84823ZM2.19208 6.17811C2.56216 6.17811 2.8622 6.47815 2.8622 6.84823C2.8622 7.21832 2.56216 7.51836 2.19208 7.51836H1.48751C1.11742 7.51836 0.817383 7.21832 0.817383 6.84823C0.817383 6.47815 1.11742 6.17811 1.48751 6.17811H2.19208ZM3.11044 3.96113C3.2413 4.09198 3.4128 4.15743 3.58427 4.15743C3.75573 4.15743 3.92728 4.09198 4.05809 3.96113C4.31979 3.69947 4.31979 3.27515 4.05809 3.01344L3.55987 2.51523C3.29821 2.25357 2.87389 2.25357 2.61218 2.51523C2.35048 2.77689 2.35048 3.20121 2.61218 3.46292L3.11044 3.96113ZM14.273 10.9192C14.5584 10.7684 14.8834 10.6829 15.228 10.6829C16.3592 10.6829 17.2795 11.6032 17.2795 12.7343V16.0036C17.2795 17.9323 16.6465 19.8289 15.4924 21.3712V22.9238C15.4924 23.2939 15.1924 23.5939 14.8223 23.5939H5.50027C5.13019 23.5939 4.83015 23.2939 4.83015 22.9238V21.418C3.38352 19.8977 2.55927 17.8458 2.5594 15.743L2.55949 14.3476C2.55949 13.2167 3.47935 12.2966 4.6099 12.2966H4.89484L4.8947 5.86294C4.8947 4.73226 5.81456 3.81235 6.94534 3.81235C8.07584 3.81235 8.99561 4.73195 8.9957 5.86227L8.99574 9.12382C9.21724 9.04176 9.45661 8.9969 9.7063 8.9969C10.4857 8.9969 11.1649 9.43409 11.5118 10.0762C11.7972 9.92534 12.1222 9.83988 12.4668 9.83988C13.2465 9.83988 13.926 10.2771 14.273 10.9192ZM14.2967 20.7277C15.3559 19.3886 15.9392 17.7109 15.9392 16.0036V12.7344C15.9392 12.3422 15.6202 12.0232 15.228 12.0232C14.8367 12.0232 14.5183 12.3415 14.5183 12.7329V14.601C14.5183 14.971 14.2182 15.2711 13.8481 15.2711C13.478 15.2711 13.178 14.971 13.178 14.601V11.8914C13.178 11.4993 12.8589 11.1802 12.4668 11.1802C12.0754 11.1802 11.757 11.4986 11.757 11.89V13.3366C11.757 13.7066 11.457 14.0067 11.0869 14.0067C10.7168 14.0067 10.4168 13.7066 10.4168 13.3366V11.0484C10.4168 10.6563 10.0981 10.3372 9.7063 10.3372C9.31464 10.3372 8.99592 10.6559 8.99592 11.0476L8.99584 12.4936C8.99579 12.8636 8.69575 13.1637 8.32571 13.1637C7.95562 13.1637 7.65558 12.8636 7.65558 12.4935L7.65545 5.86241C7.6554 5.47105 7.33687 5.15265 6.94534 5.15265C6.55367 5.15265 6.23496 5.47128 6.23496 5.86299L6.23509 12.9667C6.23509 13.1444 6.16446 13.3149 6.03879 13.4406C5.91316 13.5663 5.74273 13.6369 5.56496 13.6369H4.6099C4.21837 13.6369 3.89979 13.9558 3.89974 14.3478L3.89965 15.7431C3.89952 17.5834 4.65381 19.3773 5.96901 20.6645C6.0978 20.7906 6.1704 20.9632 6.1704 21.1434V22.2538H14.1521V21.1434C14.1521 20.9925 14.203 20.846 14.2967 20.7277Z" fill="#676E8B"/>
</svg>
