<svg width="30" height="19" viewBox="0 0 30 19" fill="none" xmlns="http://www.w3.org/2000/svg">
<path fill-rule="evenodd" clip-rule="evenodd" d="M13.9733 0.0337363C12.227 0.351237 10.8912 1.54053 10.4128 3.20387C10.2463 3.78275 10.2339 4.85684 10.3873 5.41293C10.8376 7.04501 12.1465 8.27575 13.7913 8.61397C15.0517 8.87311 16.3908 8.55119 17.4053 7.74503C18.1147 7.18133 18.6934 6.29967 18.9359 5.41293C19.0883 4.85555 19.0756 3.78084 18.9095 3.20387C18.4798 1.71001 17.3288 0.564509 15.838 0.147093C15.3736 0.0170461 14.393 -0.0425444 13.9733 0.0337363ZM15.525 1.36232C16.0469 1.51583 16.4827 1.77363 16.8713 2.15879C17.8952 3.17329 18.0881 4.71587 17.3446 5.94499C16.4553 7.41538 14.5413 7.88572 13.0404 7.00278C12.1106 6.45582 11.5465 5.46983 11.538 4.37681C11.5312 3.50143 11.831 2.77306 12.451 2.15879C12.942 1.6722 13.5873 1.35353 14.2938 1.24863C14.5631 1.20864 15.2037 1.26778 15.525 1.36232ZM5.36336 5.02183C4.74609 5.14376 4.18675 5.44289 3.73039 5.89508C2.49353 7.12067 2.49161 9.03038 3.72599 10.262C4.34863 10.8831 5.06001 11.1796 5.93084 11.1809C6.95636 11.1824 7.84013 10.7499 8.44752 9.94944C8.84271 9.42853 9.0168 8.93522 9.05043 8.24125C9.09774 7.26472 8.82706 6.57159 8.1289 5.88159C7.39486 5.15602 6.34158 4.82856 5.36336 5.02183ZM22.698 5.07829C21.5215 5.38369 20.6488 6.28948 20.3971 7.4664C20.2945 7.94643 20.2939 8.25312 20.3945 8.72374C20.6432 9.88604 21.6122 10.857 22.7928 11.1266C23.2495 11.2309 24.099 11.1708 24.5607 11.0015C25.0719 10.814 25.6171 10.4151 25.9396 9.99262C26.4056 9.38243 26.5855 8.85569 26.5865 8.09899C26.5878 7.2025 26.3069 6.53384 25.6563 5.88433C24.8635 5.09285 23.7796 4.79753 22.698 5.07829ZM6.66646 6.37103C7.03804 6.50875 7.41781 6.86142 7.63383 7.2692C7.77378 7.53333 7.79277 7.62943 7.793 8.07323C7.79328 8.66746 7.68561 8.95471 7.31228 9.35606C6.30693 10.4368 4.50287 9.96496 4.12017 8.52128C3.9077 7.71972 4.31828 6.82266 5.07256 6.44031C5.59442 6.17573 6.0826 6.15451 6.66646 6.37103ZM23.829 6.25985C24.4177 6.38329 24.8385 6.69458 25.1173 7.21303C25.4966 7.91815 25.3964 8.73399 24.8576 9.32783C24.0566 10.2105 22.6592 10.1352 21.9433 9.17073C21.708 8.85362 21.6046 8.5177 21.6025 8.06388C21.5982 7.08136 22.3972 6.26932 23.4334 6.20318C23.4862 6.19976 23.6643 6.2253 23.829 6.25985ZM13.7133 10.0073C13.0637 10.0885 12.3062 10.2803 11.6977 10.5178C10.5722 10.957 9.77379 11.4804 8.87459 12.3685L8.25969 12.9757L7.88569 12.8274C7.2037 12.5571 6.53743 12.4556 5.64597 12.4863C4.73682 12.5175 4.2171 12.6344 3.49142 12.9709C1.60801 13.8442 0.356847 15.6401 0.210682 17.6798C0.182986 18.0668 0.19463 18.1937 0.271329 18.3407C0.462542 18.7071 0.985536 18.7857 1.26566 18.4903C1.37429 18.3757 1.40928 18.2449 1.4684 17.7327C1.58303 16.7397 1.8645 16.0378 2.43848 15.3139C2.94661 14.673 3.76787 14.1354 4.65684 13.8619C5.25885 13.6766 6.41263 13.6731 7.02628 13.8546C7.257 13.9229 7.465 13.9983 7.48851 14.0223C7.51203 14.0463 7.43397 14.2675 7.31511 14.514C6.85039 15.4772 6.57716 16.5043 6.49351 17.6023C6.46169 18.02 6.47169 18.1503 6.54777 18.3092C6.74458 18.7202 7.27322 18.799 7.56086 18.4602C7.70827 18.2867 7.73755 18.1474 7.79232 17.3593C7.91638 15.5728 9.01115 13.6816 10.5879 12.5298C11.4159 11.925 12.5338 11.4607 13.5789 11.2877C14.0624 11.2077 15.26 11.2077 15.7434 11.2877C17.6511 11.6035 19.3398 12.6827 20.4032 14.2654C21.0944 15.2942 21.4644 16.3717 21.5514 17.609C21.5972 18.2605 21.6096 18.3125 21.7579 18.4658C22.0763 18.7952 22.5794 18.7166 22.7756 18.307C22.8513 18.149 22.8626 18.0201 22.8327 17.6561C22.7374 16.4977 22.4541 15.4185 22.0106 14.5248C21.8864 14.2745 21.8054 14.0492 21.8306 14.0242C21.8559 13.9992 22.0653 13.9231 22.296 13.8551C22.635 13.7553 22.8565 13.7316 23.4503 13.7318C24.3242 13.7321 24.6919 13.8144 25.4285 14.175C26.8268 14.8596 27.6603 16.0791 27.8519 17.7211C27.9129 18.2438 27.948 18.3757 28.0567 18.4904C28.3368 18.7857 28.8598 18.7071 29.051 18.3407C29.1277 18.1937 29.1393 18.0668 29.1116 17.6798C28.9655 15.6401 27.7143 13.8442 25.8309 12.9709C25.1177 12.6402 24.5835 12.5182 23.7046 12.4855C22.82 12.4524 22.1915 12.545 21.4961 12.8107L21.0654 12.9754L20.4209 12.3423C19.2035 11.1464 17.8927 10.4504 16.2229 10.1133C15.5683 9.98109 14.3386 9.92917 13.7133 10.0073Z" fill="#4B4B4B"/>
</svg>
