<svg width="26" height="23" viewBox="0 0 26 23" fill="none" xmlns="http://www.w3.org/2000/svg">
<path fill-rule="evenodd" clip-rule="evenodd" d="M2.89144 0.513995C1.99305 0.599487 1.17811 1.33477 1.01229 2.20936C0.981654 2.37107 0.964478 4.8946 0.964478 9.23586V16.0101L2.66568 14.3356L4.36688 12.6611H5.28255H6.19821L6.19902 14.2656C6.19997 16.0466 6.23161 16.3263 6.48079 16.755C6.64065 17.0302 7.04646 17.4312 7.29116 17.5557C7.37894 17.6004 7.5684 17.6768 7.71214 17.7255C7.9635 17.8106 8.22338 17.8141 14.4724 17.8141H20.9712L23.1482 19.957L25.3251 22.1V14.3889C25.3251 9.41968 25.3081 6.58805 25.2773 6.4254C25.1731 5.87563 24.7401 5.27644 24.2536 5.00872C23.7355 4.72362 23.7817 4.72845 21.3641 4.70854L19.1398 4.69022V3.57597C19.1398 2.96314 19.1183 2.34816 19.092 2.20936C18.9549 1.48603 18.4185 0.891331 17.6343 0.59321C17.4122 0.508702 17.1253 0.505141 10.2425 0.500597C6.30408 0.498021 2.99612 0.504017 2.89144 0.513995ZM17.3611 2.0068C17.6876 2.24684 17.6872 2.24506 17.7029 3.52781L17.717 4.69378L12.826 4.70816C8.18932 4.72184 7.92282 4.72713 7.70372 4.80986C6.92161 5.10513 6.3832 5.70188 6.24603 6.4254C6.21815 6.57264 6.19821 7.63133 6.19821 8.96674V11.2558H4.9974H3.79659L3.09423 11.9461L2.39186 12.6365V7.56463C2.39186 3.37271 2.40318 2.46659 2.45709 2.34202C2.54373 2.14181 2.7302 1.97841 2.92404 1.93274C3.01077 1.91232 6.26506 1.89892 10.1557 1.9029C17.2204 1.91021 17.2298 1.91035 17.3611 2.0068ZM23.5464 6.22285C23.6187 6.27597 23.7219 6.37762 23.7759 6.44878C23.8736 6.57765 23.874 6.59995 23.8863 12.6528L23.8987 18.7275L22.7203 17.5681L21.5419 16.4087H14.8287H8.11547L7.9538 16.3024C7.60437 16.0726 7.62574 16.3992 7.62569 11.2894C7.62559 7.51352 7.63706 6.6823 7.69083 6.55807C7.77747 6.35785 7.96393 6.19441 8.15777 6.14883C8.24451 6.12841 11.7129 6.11496 15.8653 6.11899C23.4105 6.12625 23.4151 6.1263 23.5464 6.22285ZM9.05298 9.6162V10.3189H15.7617H22.4704V9.6162V8.91352H15.7617H9.05298V9.6162ZM9.05298 12.4269V13.1296H14.3343H19.6156V12.4269V11.7242H14.3343H9.05298V12.4269Z" fill="#4B4B4B"/>
</svg>
