<svg width="12" height="12" viewBox="0 0 12 12" fill="none" xmlns="http://www.w3.org/2000/svg">
<path d="M11.5856 11.5891V11.5886H11.5885V7.33832C11.5885 5.25905 11.1409 3.65735 8.7101 3.65735C7.54154 3.65735 6.75735 4.29861 6.4372 4.90655H6.4034V3.85146H4.09863V11.5886H6.49853V7.75745C6.49853 6.74872 6.68975 5.77331 7.93895 5.77331C9.1698 5.77331 9.18815 6.92449 9.18815 7.82216V11.5891H11.5856Z" fill="white"/>
<path d="M0.191406 3.85193H2.5942V11.5891H0.191406V3.85193Z" fill="white"/>
<path d="M1.39165 0C0.623394 0 0 0.623394 0 1.39165C0 2.15991 0.623394 2.79634 1.39165 2.79634C2.15991 2.79634 2.7833 2.15991 2.7833 1.39165C2.78282 0.623394 2.15942 0 1.39165 0V0Z" fill="white"/>
</svg>
