<svg width="30" height="30" viewBox="0 0 30 30" fill="none" xmlns="http://www.w3.org/2000/svg">
<path fill-rule="evenodd" clip-rule="evenodd" d="M24.4135 0.78501C23.922 0.906715 23.7127 1.08445 21.4874 3.26974L19.2531 5.464L11.9885 5.47916L4.72385 5.49433L4.40043 5.6438C3.97682 5.83959 3.60331 6.22255 3.45511 6.61309C3.34429 6.90517 3.33858 7.03379 3.33858 9.24294V11.5657L2.15636 12.7395C1.17101 13.7178 0.967745 13.9471 0.935573 14.1162C0.912165 14.2393 0.923643 14.3709 0.964692 14.4505C1.0019 14.5227 1.5508 15.0961 2.1844 15.7247L3.33643 16.8676L3.35164 20.0454L3.36685 23.2233L3.50306 23.486C3.79176 24.043 4.28876 24.3885 4.93367 24.4804C5.12925 24.5084 6.59972 24.5317 8.20142 24.5323L11.1135 24.5334L13.4315 26.8248C14.7152 28.0938 15.8298 29.1506 15.9297 29.1935C16.2887 29.3477 16.3284 29.317 18.3146 27.3554C20.1612 25.5316 20.1879 25.502 20.1879 25.278C20.1879 25.0916 20.1465 25.0045 19.9569 24.7922L19.726 24.5334H22.3882H25.0505L25.0508 26.1084C25.051 27.6569 25.0532 27.686 25.178 27.8395C25.2548 27.934 25.3942 28.016 25.5311 28.0473C25.826 28.1145 27.168 28.1129 27.7016 28.0446C28.4562 27.948 29.0519 27.5832 29.4595 26.9681C29.8856 26.3252 29.8619 26.9636 29.8441 16.5888L29.8282 7.33412L29.695 7.00831C29.4401 6.3854 28.8064 5.7907 28.1913 5.59741C27.9962 5.53608 27.6058 5.49912 26.9577 5.48061L26.0095 5.45352L26.5978 4.85319C27.2665 4.17068 27.4252 3.87124 27.4252 3.29215C27.4252 2.69812 27.2687 2.41111 26.5555 1.69727C26.0865 1.2279 25.8466 1.03193 25.611 0.925838C25.2568 0.766222 24.7363 0.705063 24.4135 0.78501ZM25.2233 2.06991C25.3028 2.1246 25.5495 2.35792 25.7714 2.58829C26.2213 3.05526 26.3101 3.27397 26.162 3.55022C26.1148 3.63825 25.7944 3.98586 25.4501 4.32271L24.8241 4.93514L24.0044 4.12836L23.1847 3.32153L23.8739 2.6403C24.253 2.26565 24.6156 1.94949 24.6796 1.93772C24.8508 1.90634 25.0594 1.95701 25.2233 2.06991ZM23.1709 4.97907L23.9757 5.77398L20.6536 9.0492L17.3317 12.3244L16.5127 11.5155L15.6938 10.7065L19.0008 7.44535C20.8197 5.65171 22.321 4.18417 22.3371 4.18417C22.3531 4.18417 22.7283 4.54187 23.1709 4.97907ZM16.1416 8.54671L14.2761 10.4004L13.6126 12.3871C13.2237 13.5519 12.9633 14.4168 12.9833 14.4778C13.0644 14.725 13.1479 14.833 13.3207 14.9138C13.4821 14.9893 14.069 14.9999 18.062 14.9999H22.6192V14.3867V13.7734L20.0324 13.7732C17.4709 13.773 17.4473 13.772 17.6153 13.6673C17.7086 13.6092 19.3496 12.0161 21.262 10.1273L24.7392 6.69298H26.2253C27.4389 6.69298 27.75 6.70881 27.921 6.77928C28.189 6.88967 28.3663 7.05419 28.5191 7.33412L28.6409 7.55713L28.656 15.6012L28.671 23.6452L28.4955 23.5558C28.0338 23.3203 27.7809 23.3089 23.0156 23.3078L18.4645 23.3069L11.8476 16.784L5.23063 10.2611H4.96646C4.82115 10.2611 4.68653 10.2862 4.6673 10.3168C4.64808 10.3475 4.60845 10.3726 4.57916 10.3726C4.50882 10.3726 4.50871 7.24676 4.57904 7.06434C4.60822 6.98863 4.68936 6.87412 4.7593 6.80984L4.88652 6.69298H11.4469H18.0073L16.1416 8.54671ZM5.78326 12.4765C6.21128 12.8977 6.56144 13.2673 6.56144 13.2979C6.56144 13.3285 6.28145 13.6304 5.9392 13.9688L5.31702 14.5841L5.74159 14.9999L6.16616 15.4158L6.81644 14.7764L7.46678 14.137L8.24326 14.9026L9.0198 15.6683L8.37133 16.3095L7.72286 16.9507L8.14466 17.3694L8.5664 17.7881L9.21855 17.1467L9.8707 16.5053L10.6475 17.2726L11.4242 18.04L10.7737 18.6796L10.1231 19.3193L10.5472 19.7375L10.9712 20.1556L11.6217 19.516L12.2722 18.8763L13.0355 19.6273C13.4553 20.0404 13.7987 20.4034 13.7987 20.434C13.7987 20.4646 13.5187 20.7666 13.1765 21.105L12.5543 21.7203L12.9789 22.1361L13.4035 22.552L14.0537 21.9125L14.7041 21.2731L15.4806 22.0388L16.2571 22.8045L15.6086 23.4457L14.9602 24.0869L15.382 24.5056L15.8037 24.9242L16.4558 24.2829L17.108 23.6415L17.9266 24.4501L18.7452 25.2587L17.4451 26.5407L16.145 27.8227L9.24733 21.0212L2.34967 14.2198L3.62112 12.9652C4.32037 12.2752 4.91784 11.7106 4.94882 11.7106C4.97975 11.7106 5.35524 12.0552 5.78326 12.4765ZM15.6628 12.35C15.956 12.6403 16.1845 12.8877 16.1706 12.8999C16.1566 12.912 15.8144 13.0293 15.4102 13.1607C15.0059 13.292 14.6461 13.41 14.6106 13.4229C14.5751 13.4357 14.6626 13.0807 14.8052 12.6341C14.9477 12.1875 15.079 11.8221 15.097 11.8221C15.115 11.8221 15.3696 12.0597 15.6628 12.35ZM23.8461 13.8087C23.8244 13.8302 23.8066 14.107 23.8066 14.4239V14.9999H24.4304H25.0543L25.0383 14.4006L25.0222 13.8013L24.4539 13.7855C24.1414 13.7769 23.8679 13.7873 23.8461 13.8087ZM26.2378 14.3867V14.9999H26.8315H27.4252V14.3867V13.7734H26.8315H26.2378V14.3867ZM7.21167 20.6866L9.86866 23.3069H7.39611H4.92355L4.73889 23.1443L4.55422 22.9816L4.53839 20.5239C4.52968 19.1722 4.52974 18.0663 4.53862 18.0663C4.54744 18.0663 5.7503 19.2454 7.21167 20.6866ZM27.921 24.6197C28.3718 24.8054 28.6176 25.1884 28.6201 25.709C28.6221 26.1236 28.4328 26.4732 28.0865 26.6945C27.8615 26.8382 27.8076 26.847 27.0436 26.8657L26.2378 26.8855V25.7094V24.5334H26.9747C27.5119 24.5334 27.7683 24.5568 27.921 24.6197Z" fill="#4B4B4B"/>
</svg>
