<svg width="10" height="9" viewBox="0 0 10 9" fill="none" xmlns="http://www.w3.org/2000/svg">
<path fill-rule="evenodd" clip-rule="evenodd" d="M3.34132 0.0309478C3.31017 0.0494395 3.27546 0.090202 3.26417 0.121561C3.2493 0.16285 3.24364 0.824666 3.24364 2.52256V4.86655H2.1708C1.23142 4.86655 1.09046 4.87 1.03761 4.89427C0.961567 4.92922 0.912825 5.02213 0.929563 5.10028C0.939184 5.14521 1.33612 5.53914 2.89591 7.05177C3.97077 8.0941 4.87366 8.95898 4.90233 8.97367C5.03156 9.03996 4.91809 9.14029 7.05871 7.06703C8.63571 5.53965 9.03363 5.1453 9.04323 5.10028C9.05988 5.02211 9.0111 4.9292 8.93511 4.89427C8.88226 4.87 8.7413 4.86655 7.80192 4.86655H6.72908L6.72908 2.49385V0.121156L6.67611 0.0637477L6.62314 0.00633917L5.01054 0.00185688C3.45039 -0.0024848 3.39611 -0.00155318 3.34132 0.0309478Z" fill="#C90000"/>
</svg>
