<svg width="9" height="9" viewBox="0 0 9 9" fill="none" xmlns="http://www.w3.org/2000/svg">
<path fill-rule="evenodd" clip-rule="evenodd" d="M6.11766 8.96905C6.14881 8.95056 6.18352 8.9098 6.19481 8.87844C6.20968 8.83715 6.21534 8.17533 6.21534 6.47744L6.21534 4.13345L7.28819 4.13345C8.22757 4.13345 8.36853 4.13 8.42137 4.10573C8.49742 4.07078 8.54616 3.97787 8.52942 3.89972C8.5198 3.85479 8.12286 3.46086 6.56307 1.94823C5.48821 0.905897 4.58532 0.0410239 4.55666 0.0263297C4.42742 -0.0399555 4.5409 -0.140289 2.40028 1.93297C0.823279 3.46035 0.425358 3.8547 0.415756 3.89972C0.399108 3.97789 0.447887 4.0708 0.523877 4.10573C0.576721 4.13 0.717681 4.13345 1.65706 4.13345L2.72991 4.13345L2.72991 6.50614L2.72991 8.87884L2.78288 8.93625L2.83585 8.99366L4.44844 8.99814C6.0086 9.00248 6.06287 9.00155 6.11766 8.96905Z" fill="#00C981"/>
</svg>
