<svg width="22" height="16" viewBox="0 0 22 16" fill="none"  xmlns="http://www.w3.org/2000/svg">
<path d="M11.1367 6.35202C13.0106 6.35202 14.5351 5.03942 14.5351 3.42601C14.5351 1.8126 13.0106 0.5 11.1367 0.5C9.26281 0.5 7.73828 1.8126 7.73828 3.42601C7.73828 5.03942 9.26281 6.35202 11.1367 6.35202ZM11.1367 1.50897C12.3644 1.50897 13.3633 2.36895 13.3633 3.42601C13.3633 4.48308 12.3644 5.34305 11.1367 5.34305C9.90898 5.34305 8.91015 4.48308 8.91015 3.42601C8.91015 2.36895 9.90898 1.50897 11.1367 1.50897Z" fill="#676E8B" stroke="#676E8B" stroke-width="0.3"/>
<path d="M18.0117 6.35202C19.1964 6.35202 20.1601 5.52221 20.1601 4.50224C20.1601 3.48228 19.1964 2.65247 18.0117 2.65247C16.8271 2.65247 15.8633 3.48228 15.8633 4.50224C15.8633 5.52221 16.8271 6.35202 18.0117 6.35202ZM18.0117 3.66144C18.5502 3.66144 18.9883 4.03862 18.9883 4.50224C18.9883 4.96587 18.5502 5.34305 18.0117 5.34305C17.4732 5.34305 17.0352 4.96587 17.0352 4.50224C17.0352 4.03862 17.4732 3.66144 18.0117 3.66144Z" fill="#676E8B" stroke="#676E8B" stroke-width="0.3"/>
<path d="M18.4843 7.49548H17.5781C16.5102 7.49548 15.5883 8.03871 15.1682 8.81898C14.3033 8.00609 13.061 7.49548 11.6828 7.49548H10.5907C9.21241 7.49548 7.9701 8.00609 7.10522 8.81898C6.68511 8.03871 5.76323 7.49548 4.69531 7.49548H3.78906C2.32656 7.49548 1.13672 8.51374 1.13672 9.76533V13.4383C1.13672 13.9817 1.65211 14.4237 2.28562 14.4237H5.8687C5.92878 15.0258 6.51675 15.5 7.23132 15.5H15.0421C15.7567 15.5 16.3446 15.0258 16.4047 14.4237H19.9469C20.603 14.4237 21.1367 13.966 21.1367 13.4033V9.76533C21.1367 8.51374 19.9468 7.49548 18.4843 7.49548ZM2.30859 9.76533C2.30859 9.07008 2.97273 8.50445 3.78906 8.50445H4.69531C5.51163 8.50445 6.17577 9.07008 6.17577 9.76533V10.1108C5.78175 10.9941 5.86327 11.5235 5.86327 13.4148H2.30859V9.76533ZM15.2383 14.3221C15.2383 14.4153 15.1503 14.491 15.0421 14.491H7.23128C7.12311 14.491 7.03514 14.4152 7.03514 14.3221V11.5657C7.03514 9.87773 8.63014 8.50445 10.5906 8.50445H11.6827C13.6433 8.50445 15.2383 9.87773 15.2383 11.5657V14.3221ZM19.9648 13.4033C19.9648 13.4207 20.1832 13.4148 16.4101 13.4148C16.4101 11.5095 16.491 10.9926 16.0976 10.1108V9.76533C16.0976 9.07008 16.7618 8.50445 17.5781 8.50445H18.4843C19.3007 8.50445 19.9648 9.07008 19.9648 9.76533V13.4033Z" fill="#676E8B" stroke="#676E8B" stroke-width="0.3"/>
<path d="M4.26171 6.35202C5.44636 6.35202 6.41015 5.52221 6.41015 4.50224C6.41015 3.48228 5.44636 2.65247 4.26171 2.65247C3.07707 2.65247 2.11328 3.48228 2.11328 4.50224C2.11328 5.52221 3.07707 6.35202 4.26171 6.35202ZM4.26171 3.66144C4.80019 3.66144 5.23828 4.03862 5.23828 4.50224C5.23828 4.96587 4.80019 5.34305 4.26171 5.34305C3.72324 5.34305 3.28515 4.96587 3.28515 4.50224C3.28515 4.03862 3.72324 3.66144 4.26171 3.66144Z" fill="#676E8B" stroke="#676E8B" stroke-width="0.3"/>
</svg>
