<svg width="24" height="25" viewBox="0 0 24 25" fill="none" xmlns="http://www.w3.org/2000/svg">
<path d="M21.037 2.92969H20.2629V2.19727C20.2629 0.985693 19.2212 0 17.9407 0H2.45897C1.17848 0 0.136719 0.985693 0.136719 2.19727V19.873C0.136719 21.0846 1.17848 22.0703 2.45897 22.0703H3.23306V22.8027C3.23306 24.0143 4.27482 25 5.55531 25H21.037C22.3175 25 23.3593 24.0143 23.3593 22.8027V5.12695C23.3593 3.91538 22.3175 2.92969 21.037 2.92969ZM3.91322 5.64487C3.47457 6.05986 3.23306 6.61162 3.23306 7.19853V20.6055H2.45897C2.03214 20.6055 1.68489 20.2769 1.68489 19.873V2.19727C1.68489 1.79341 2.03214 1.46484 2.45897 1.46484H17.9407C18.3675 1.46484 18.7147 1.79341 18.7147 2.19727V2.92969H7.74473C7.12443 2.92969 6.54129 3.15825 6.10269 3.57324L3.91322 5.64487ZM7.87756 4.39453V7.32422H4.78123V7.19853C4.78123 7.00293 4.86173 6.81899 5.00793 6.68066L7.1974 4.60903C7.3436 4.4707 7.538 4.39453 7.74473 4.39453H7.87756ZM21.8111 22.8027C21.8111 23.2066 21.4638 23.5352 21.037 23.5352H5.55531C5.12848 23.5352 4.78123 23.2066 4.78123 22.8027V8.78906H8.65165C9.07915 8.78906 9.42573 8.46113 9.42573 8.05664V4.39453H21.037C21.4638 4.39453 21.8111 4.7231 21.8111 5.12695V22.8027Z" fill="#676E8B"/>
<path d="M18.5103 10.3516H6.12491C5.69741 10.3516 5.35083 10.6795 5.35083 11.084C5.35083 11.4885 5.69741 11.8164 6.12491 11.8164H18.5103C18.9378 11.8164 19.2844 11.4885 19.2844 11.084C19.2844 10.6795 18.9378 10.3516 18.5103 10.3516Z" fill="#676E8B"/>
<path d="M18.5103 13.2812H6.12491C5.69741 13.2812 5.35083 13.6092 5.35083 14.0137C5.35083 14.4182 5.69741 14.7461 6.12491 14.7461H18.5103C18.9378 14.7461 19.2844 14.4182 19.2844 14.0137C19.2844 13.6092 18.9378 13.2812 18.5103 13.2812Z" fill="#676E8B"/>
<path d="M18.5103 16.2109H6.12491C5.69741 16.2109 5.35083 16.5389 5.35083 16.9434C5.35083 17.3479 5.69741 17.6758 6.12491 17.6758H18.5103C18.9378 17.6758 19.2844 17.3479 19.2844 16.9434C19.2844 16.5389 18.9378 16.2109 18.5103 16.2109Z" fill="#676E8B"/>
<path d="M18.5103 19.1406H6.12491C5.69741 19.1406 5.35083 19.4686 5.35083 19.873C5.35083 20.2775 5.69741 20.6055 6.12491 20.6055H18.5103C18.9378 20.6055 19.2844 20.2775 19.2844 19.873C19.2844 19.4686 18.9378 19.1406 18.5103 19.1406Z" fill="#676E8B"/>
</svg>
