<svg width="23" height="22" viewBox="0 0 23 22" fill="none" xmlns="http://www.w3.org/2000/svg">
<path d="M7.01172 10.3125H15.2617C15.4441 10.3125 15.6189 10.2401 15.7479 10.1111C15.8768 9.9822 15.9492 9.80734 15.9492 9.625V5.5C15.9492 5.31766 15.8768 5.1428 15.7479 5.01386C15.6189 4.88493 15.4441 4.8125 15.2617 4.8125H7.01172C6.82938 4.8125 6.65451 4.88493 6.52558 5.01386C6.39665 5.1428 6.32422 5.31766 6.32422 5.5V9.625C6.32422 9.80734 6.39665 9.9822 6.52558 10.1111C6.65451 10.2401 6.82938 10.3125 7.01172 10.3125ZM7.69922 6.1875H14.5742V8.9375H7.69922V6.1875ZM17.3242 2.0625H4.94922C4.58455 2.0625 4.23481 2.20737 3.97695 2.46523C3.71908 2.72309 3.57422 3.07283 3.57422 3.4375V18.5625C3.57422 18.9272 3.71908 19.2769 3.97695 19.5348C4.23481 19.7926 4.58455 19.9375 4.94922 19.9375H17.3242C17.6889 19.9375 18.0386 19.7926 18.2965 19.5348C18.5544 19.2769 18.6992 18.9272 18.6992 18.5625V3.4375C18.6992 3.07283 18.5544 2.72309 18.2965 2.46523C18.0386 2.20737 17.6889 2.0625 17.3242 2.0625ZM17.3242 18.5625H4.94922V3.4375H17.3242V18.5625ZM8.73047 12.7188C8.73047 12.9227 8.66999 13.1221 8.55667 13.2917C8.44336 13.4613 8.2823 13.5934 8.09386 13.6715C7.90542 13.7496 7.69807 13.77 7.49803 13.7302C7.29799 13.6904 7.11424 13.5922 6.97001 13.448C6.82579 13.3037 6.72757 13.12 6.68778 12.9199C6.64799 12.7199 6.66842 12.5125 6.74647 12.3241C6.82452 12.1357 6.9567 11.9746 7.12629 11.8613C7.29588 11.748 7.49526 11.6875 7.69922 11.6875C7.97272 11.6875 8.23503 11.7962 8.42842 11.9895C8.62182 12.1829 8.73047 12.4452 8.73047 12.7188ZM12.168 12.7188C12.168 12.9227 12.1075 13.1221 11.9942 13.2917C11.8809 13.4613 11.7198 13.5934 11.5314 13.6715C11.3429 13.7496 11.1356 13.77 10.9355 13.7302C10.7355 13.6904 10.5517 13.5922 10.4075 13.448C10.2633 13.3037 10.1651 13.12 10.1253 12.9199C10.0855 12.7199 10.1059 12.5125 10.184 12.3241C10.262 12.1357 10.3942 11.9746 10.5638 11.8613C10.7334 11.748 10.9328 11.6875 11.1367 11.6875C11.4102 11.6875 11.6725 11.7962 11.8659 11.9895C12.0593 12.1829 12.168 12.4452 12.168 12.7188ZM15.6055 12.7188C15.6055 12.9227 15.545 13.1221 15.4317 13.2917C15.3184 13.4613 15.1573 13.5934 14.9689 13.6715C14.7804 13.7496 14.5731 13.77 14.373 13.7302C14.173 13.6904 13.9892 13.5922 13.845 13.448C13.7008 13.3037 13.6026 13.12 13.5628 12.9199C13.523 12.7199 13.5434 12.5125 13.6215 12.3241C13.6995 12.1357 13.8317 11.9746 14.0013 11.8613C14.1709 11.748 14.3703 11.6875 14.5742 11.6875C14.8477 11.6875 15.11 11.7962 15.3034 11.9895C15.4968 12.1829 15.6055 12.4452 15.6055 12.7188ZM8.73047 16.1562C8.73047 16.3602 8.66999 16.5596 8.55667 16.7292C8.44336 16.8988 8.2823 17.0309 8.09386 17.109C7.90542 17.1871 7.69807 17.2075 7.49803 17.1677C7.29799 17.1279 7.11424 17.0297 6.97001 16.8855C6.82579 16.7412 6.72757 16.5575 6.68778 16.3574C6.64799 16.1574 6.66842 15.95 6.74647 15.7616C6.82452 15.5732 6.9567 15.4121 7.12629 15.2988C7.29588 15.1855 7.49526 15.125 7.69922 15.125C7.97272 15.125 8.23503 15.2337 8.42842 15.427C8.62182 15.6204 8.73047 15.8827 8.73047 16.1562ZM12.168 16.1562C12.168 16.3602 12.1075 16.5596 11.9942 16.7292C11.8809 16.8988 11.7198 17.0309 11.5314 17.109C11.3429 17.1871 11.1356 17.2075 10.9355 17.1677C10.7355 17.1279 10.5517 17.0297 10.4075 16.8855C10.2633 16.7412 10.1651 16.5575 10.1253 16.3574C10.0855 16.1574 10.1059 15.95 10.184 15.7616C10.262 15.5732 10.3942 15.4121 10.5638 15.2988C10.7334 15.1855 10.9328 15.125 11.1367 15.125C11.4102 15.125 11.6725 15.2337 11.8659 15.427C12.0593 15.6204 12.168 15.8827 12.168 16.1562ZM15.6055 16.1562C15.6055 16.3602 15.545 16.5596 15.4317 16.7292C15.3184 16.8988 15.1573 17.0309 14.9689 17.109C14.7804 17.1871 14.5731 17.2075 14.373 17.1677C14.173 17.1279 13.9892 17.0297 13.845 16.8855C13.7008 16.7412 13.6026 16.5575 13.5628 16.3574C13.523 16.1574 13.5434 15.95 13.6215 15.7616C13.6995 15.5732 13.8317 15.4121 14.0013 15.2988C14.1709 15.1855 14.3703 15.125 14.5742 15.125C14.8477 15.125 15.11 15.2337 15.3034 15.427C15.4968 15.6204 15.6055 15.8827 15.6055 16.1562Z" fill="#676E8B"/>
</svg>
