<svg width="22" height="18" viewBox="0 0 22 18" fill="none" xmlns="http://www.w3.org/2000/svg">
<path d="M20.8008 8.08236L19.1112 6.74865V2.32619C19.1112 2.0448 18.8479 1.81664 18.5231 1.81664H14.4561C14.1313 1.81664 13.8679 2.04477 13.8679 2.32619V2.60958L11.8275 0.998841C11.4336 0.687875 10.8396 0.687909 10.4459 0.998807L1.47257 8.08239C1.1571 8.33146 1.05285 8.71522 1.20699 9.06003C1.36117 9.40483 1.73656 9.62761 2.16339 9.62761H3.59656V16.7248C3.59656 17.0062 3.85988 17.2343 4.18472 17.2343H9.10319C9.428 17.2343 9.69136 17.0062 9.69136 16.7248V12.4156H12.582V16.7248C12.582 17.0062 12.8453 17.2344 13.1702 17.2344H18.0885C18.4133 17.2344 18.6766 17.0063 18.6766 16.7248V9.62764H20.1101C20.5369 9.62764 20.9123 9.40483 21.0665 9.06006C21.2206 8.71522 21.1164 8.33146 20.8008 8.08236ZM18.0885 8.60855C17.7637 8.60855 17.5003 8.83667 17.5003 9.1181V16.2153H13.7584V11.9061C13.7584 11.6247 13.495 11.3965 13.1702 11.3965H9.10319C8.77839 11.3965 8.51503 11.6246 8.51503 11.9061V16.2153H4.77284V9.1181C4.77284 8.83671 4.50952 8.60855 4.18468 8.60855H2.55253L11.1367 1.83221L14.06 4.13987C14.2322 4.27578 14.4808 4.3108 14.6938 4.22935C14.9068 4.14779 15.0443 3.96498 15.0443 3.76322V2.83574H17.935V6.97369C17.935 7.11707 18.0047 7.25376 18.127 7.35034L19.7209 8.60855H18.0885Z" fill="#676E8B" stroke="#676E8B" stroke-width="0.4"/>
</svg>
