<svg width="22" height="26" viewBox="0 0 22 26" fill="none" xmlns="http://www.w3.org/2000/svg">
<path fill-rule="evenodd" clip-rule="evenodd" d="M10.3724 1.06889C9.60759 1.24343 8.8773 1.78227 8.55058 2.41317L8.38665 2.72972L7.38607 2.72991C6.0009 2.73014 5.96255 2.75486 5.96255 3.64725V4.13661L4.70634 4.13731C3.7748 4.13783 3.36963 4.15589 3.13869 4.20724C2.1793 4.42043 1.38612 5.17114 1.19169 6.04994C1.15274 6.22603 1.13672 8.74999 1.13672 14.7091C1.13672 22.9533 1.13866 23.1257 1.23503 23.4198C1.48303 24.1767 2.17865 24.744 3.09153 24.9338C3.41247 25.0006 4.27555 25.007 11.3108 24.9952L19.1714 24.982L19.5037 24.8601C20.1183 24.6345 20.6533 24.22 20.8863 23.7886C21.1503 23.3001 21.1365 23.7997 21.1365 14.6897C21.1365 5.48483 21.1536 6.03981 20.8528 5.44971C20.679 5.10877 20.1055 4.57312 19.7348 4.40551C19.2209 4.17314 18.9373 4.13806 17.5669 4.13731L16.3107 4.13661V3.64725C16.3107 3.07511 16.2714 2.95051 16.0508 2.8237C15.9018 2.73811 15.7995 2.73005 14.858 2.72991L13.8282 2.72972L13.6686 2.41317C13.4515 1.98266 12.9244 1.4857 12.468 1.28114C11.8677 1.01219 11.0042 0.924726 10.3724 1.06889ZM11.7834 2.21255C12.2822 2.45463 12.5667 2.77052 12.7128 3.24464C12.8893 3.81743 12.9794 3.85523 14.1665 3.85523H15.0669V5.00419V6.15315H11.1366H7.20632V5.0071V3.86105L8.12322 3.84642C9.22306 3.82888 9.24769 3.81894 9.44859 3.31095C9.63769 2.83275 9.71356 2.71696 9.99286 2.48028C10.3562 2.17231 10.6653 2.06858 11.1615 2.08818C11.4561 2.09981 11.6177 2.13212 11.7834 2.21255ZM5.97086 6.07109C5.98618 6.81847 5.99583 6.89116 6.09807 7.02627C6.15891 7.1067 6.27085 7.19674 6.34682 7.22633C6.44826 7.26591 7.73562 7.27689 11.1948 7.26769L15.9047 7.25522L16.0395 7.13798C16.2754 6.93276 16.3107 6.78297 16.3107 5.98644V5.25396L17.5918 5.26977L18.8729 5.28557L19.1567 5.41693C19.4591 5.55691 19.6315 5.71932 19.8081 6.03047L19.9176 6.2235L19.9319 14.5476C19.9429 21.0117 19.9325 22.9185 19.8851 23.0812C19.807 23.3493 19.4946 23.6482 19.1681 23.7671C18.931 23.8535 18.6608 23.857 11.2652 23.869C2.937 23.8825 3.28277 23.8925 2.83466 23.6259C2.60059 23.4866 2.46138 23.3117 2.38377 23.0593C2.34069 22.9193 2.32979 20.7591 2.34084 14.5476C2.35507 6.52392 2.35895 6.21759 2.44855 6.05936C2.68984 5.63317 3.00889 5.39104 3.43257 5.31254C3.55167 5.29045 4.16779 5.2701 4.80171 5.26728L5.95434 5.26212L5.97086 6.07109ZM8.12671 9.08174C8.04462 9.11705 7.54089 9.53804 7.00731 10.0173C6.47374 10.4965 6.02334 10.8888 6.00648 10.8891C5.98956 10.8895 5.80046 10.7156 5.58618 10.5028C5.09763 10.0176 4.99614 9.95246 4.72738 9.95209C4.35873 9.95153 4.11943 10.2614 4.19505 10.6414C4.22316 10.7828 4.36177 10.9409 4.95181 11.5049C5.34907 11.8846 5.74016 12.2211 5.82091 12.2526C6.11797 12.3687 6.2505 12.2815 7.57945 11.0962C8.78954 10.0169 8.99735 9.79766 8.99735 9.60004C8.99735 9.43717 8.82327 9.18913 8.64601 9.09951C8.44611 8.99845 8.32949 8.99446 8.12671 9.08174ZM10.2635 10.4935C10.063 10.5867 9.94261 10.7883 9.94261 11.0306C9.94261 11.2979 10.1746 11.5245 10.4929 11.568C10.6143 11.5846 12.2809 11.5918 14.1963 11.5839C17.9857 11.5684 17.8211 11.5808 18.0047 11.297C18.1843 11.0194 18.1071 10.7179 17.8076 10.5276L17.6393 10.4207L14.0273 10.4218C10.9122 10.4227 10.3943 10.4326 10.2635 10.4935ZM8.07696 13.6656C8.02223 13.6948 7.53815 14.1162 7.00119 14.6019L6.02498 15.4851L5.5629 15.041C5.08106 14.5778 4.88405 14.4693 4.62271 14.5235C4.32181 14.5857 4.11256 14.9295 4.19256 15.23C4.22664 15.3579 5.53459 16.6833 5.72523 16.7831C5.86857 16.8581 6.15498 16.8592 6.2918 16.7853C6.51005 16.6673 8.88949 14.4923 8.94934 14.356C9.03411 14.1631 8.94421 13.8893 8.74387 13.7304C8.57735 13.5983 8.26074 13.5676 8.07696 13.6656ZM10.2604 15.0625C9.85192 15.2181 9.83823 15.8753 10.2395 16.0709C10.4594 16.1781 17.5333 16.1782 17.773 16.071C18.0715 15.9375 18.1859 15.5874 18.0263 15.2964C17.867 15.0061 18.015 15.0163 14.0122 15.0195C12.0065 15.0212 10.3182 15.0405 10.2604 15.0625ZM8.12671 18.227C8.04462 18.2625 7.54089 18.6837 7.00731 19.1629C6.47374 19.6421 6.02429 20.0342 6.00847 20.0343C5.9927 20.0344 5.8024 19.8604 5.58559 19.6476C5.08524 19.1565 4.9929 19.0973 4.72738 19.0969C4.35873 19.0963 4.11943 19.4062 4.19505 19.7862C4.22316 19.9276 4.36177 20.0857 4.95181 20.6497C5.34907 21.0294 5.74016 21.3659 5.82091 21.3974C6.11966 21.5141 6.25185 21.4272 7.58064 20.2406C8.79053 19.1602 8.99735 18.9418 8.99735 18.7448C8.99735 18.582 8.82327 18.3339 8.64601 18.2443C8.44586 18.1431 8.32914 18.1393 8.12671 18.227ZM10.3117 19.611C10.2547 19.6327 10.1484 19.7174 10.0753 19.7992C9.80012 20.1075 9.96231 20.5797 10.3811 20.6894C10.6576 20.7617 17.4764 20.7499 17.702 20.6767C17.8005 20.6447 17.9231 20.5524 17.9881 20.4613C18.188 20.181 18.1165 19.8687 17.8076 19.6724L17.6393 19.5655L14.0273 19.5685C12.0407 19.5701 10.3686 19.5892 10.3117 19.611Z" fill="#676E8B" stroke="#676E8B" stroke-width="0.5"/>
</svg>
