<svg width="23" height="22" viewBox="0 0 23 22" fill="none" xmlns="http://www.w3.org/2000/svg">
<g clip-path="url(#clip0_163_27)">
<path d="M11.1368 22C10.8838 22 10.6785 21.7946 10.6785 21.5416V16.0416C10.6785 15.7886 10.8838 15.5833 11.1368 15.5833C11.3898 15.5833 11.5951 15.7886 11.5951 16.0416V21.5416C11.5951 21.7946 11.3898 22 11.1368 22Z" fill="#676E8B" stroke="#676E8B" stroke-width="0.6"/>
<path d="M15.2617 22C15.1746 22 15.0866 21.9753 15.0078 21.923L10.8828 19.173C10.672 19.0328 10.6151 18.7486 10.7554 18.5378C10.8956 18.3269 11.1789 18.2701 11.3906 18.4104L15.5156 21.1604C15.7265 21.3006 15.7833 21.5848 15.6431 21.7956C15.5551 21.9285 15.4093 22 15.2617 22Z" fill="#676E8B" stroke="#676E8B" stroke-width="0.6"/>
<path d="M7.01166 22C6.86316 22 6.71832 21.9285 6.62941 21.7956C6.48916 21.5847 6.54599 21.3006 6.75682 21.1603L10.8818 18.4103C11.0927 18.2692 11.3777 18.3269 11.5171 18.5377C11.6573 18.7486 11.6005 19.0327 11.3897 19.173L7.26466 21.923C7.18766 21.9752 7.09966 22 7.01166 22Z" fill="#676E8B" stroke="#676E8B" stroke-width="0.6"/>
<path d="M20.3034 4.54667H1.97005C0.958969 4.54667 0.136719 3.72442 0.136719 2.71334C0.136719 1.70225 0.958969 0.880005 1.97005 0.880005H20.3034C21.3145 0.880005 22.1367 1.70225 22.1367 2.71334C22.1367 3.72442 21.3145 4.54667 20.3034 4.54667ZM1.97005 1.79667C1.46497 1.79667 1.05339 2.20826 1.05339 2.71334C1.05339 3.21842 1.46497 3.63001 1.97005 3.63001H20.3034C20.8085 3.63001 21.2201 3.21842 21.2201 2.71334C21.2201 2.20826 20.8085 1.79667 20.3034 1.79667H1.97005Z" fill="#676E8B" stroke="#676E8B" stroke-width="0.6"/>
<path d="M18.9283 16.5H3.34497C2.58689 16.5 1.96997 15.8831 1.96997 15.125V4.12502C1.96997 3.87202 2.1753 3.66669 2.4283 3.66669H19.845C20.098 3.66669 20.3033 3.87202 20.3033 4.12502V15.125C20.3033 15.8831 19.6864 16.5 18.9283 16.5ZM2.88664 4.58335V15.125C2.88664 15.378 3.09197 15.5834 3.34497 15.5834H18.9283C19.1813 15.5834 19.3866 15.378 19.3866 15.125V4.58335H2.88664Z" fill="#676E8B" stroke="#676E8B" stroke-width="0.6"/>
<path d="M6.09504 13.7136C5.9777 13.7136 5.86037 13.6687 5.77054 13.5797C5.59179 13.401 5.59179 13.1104 5.77054 12.9317L9.4372 9.26498C9.59212 9.11007 9.83412 9.08623 10.0156 9.20723L12.4164 10.8077L15.82 6.55257C15.9785 6.3564 16.2664 6.32248 16.4644 6.48107C16.6615 6.63965 16.6935 6.92748 16.5359 7.12548L12.8692 11.7088C12.7207 11.894 12.4558 11.9371 12.2569 11.8041L9.81945 10.1798L6.41862 13.5806C6.3297 13.6687 6.21237 13.7136 6.09504 13.7136Z" fill="#676E8B" stroke="#676E8B" stroke-width="0.6"/>
</g>
<defs>
<clipPath id="clip0_163_27">
<rect width="22" height="22" fill="white" transform="translate(0.136719)"/>
</clipPath>
</defs>
</svg>
