<svg width="21" height="20" viewBox="0 0 21 20" fill="none" xmlns="http://www.w3.org/2000/svg">
<path d="M17.793 1.5625H16.8555V0H15.293V1.5625H4.98047V0H3.41797V1.5625H2.48047C1.18813 1.5625 0.136719 2.61391 0.136719 3.90625V17.6562C0.136719 18.9486 1.18813 20 2.48047 20H17.793C19.0853 20 20.1367 18.9486 20.1367 17.6562V3.90625C20.1367 2.61391 19.0853 1.5625 17.793 1.5625ZM18.5742 17.6562C18.5742 18.087 18.2237 18.4375 17.793 18.4375H2.48047C2.04969 18.4375 1.69922 18.087 1.69922 17.6562V7.34375H18.5742V17.6562ZM18.5742 5.78125H1.69922V3.90625C1.69922 3.47547 2.04969 3.125 2.48047 3.125H3.41797V4.6875H4.98047V3.125H15.293V4.6875H16.8555V3.125H17.793C18.2237 3.125 18.5742 3.47547 18.5742 3.90625V5.78125Z" fill="#676E8B"/>
</svg>
