<svg width="20" height="22" viewBox="0 0 20 22" fill="none" xmlns="http://www.w3.org/2000/svg">
<path d="M10.3743 1H9.9343C9.40387 1 8.89516 1.21071 8.52009 1.58579C8.14501 1.96086 7.9343 2.46957 7.9343 3V3.18C7.93394 3.53073 7.84136 3.87519 7.66584 4.17884C7.49032 4.48248 7.23804 4.73464 6.9343 4.91L6.5043 5.16C6.20026 5.33554 5.85537 5.42795 5.5043 5.42795C5.15323 5.42795 4.80834 5.33554 4.5043 5.16L4.3543 5.08C3.89536 4.81526 3.35014 4.74344 2.8383 4.88031C2.32647 5.01717 1.88985 5.35154 1.6243 5.81L1.4043 6.19C1.13956 6.64893 1.06774 7.19416 1.20461 7.706C1.34147 8.21783 1.67583 8.65445 2.1343 8.92L2.2843 9.02C2.58657 9.19451 2.83792 9.44509 3.01335 9.74683C3.18878 10.0486 3.28219 10.391 3.2843 10.74V11.25C3.2857 11.6024 3.19395 11.949 3.01834 12.2545C2.84274 12.5601 2.58951 12.8138 2.2843 12.99L2.1343 13.08C1.67583 13.3456 1.34147 13.7822 1.20461 14.294C1.06774 14.8058 1.13956 15.3511 1.4043 15.81L1.6243 16.19C1.88985 16.6485 2.32647 16.9828 2.8383 17.1197C3.35014 17.2566 3.89536 17.1847 4.3543 16.92L4.5043 16.84C4.80834 16.6645 5.15323 16.5721 5.5043 16.5721C5.85537 16.5721 6.20026 16.6645 6.5043 16.84L6.9343 17.09C7.23804 17.2654 7.49032 17.5175 7.66584 17.8212C7.84136 18.1248 7.93394 18.4693 7.9343 18.82V19C7.9343 19.5304 8.14501 20.0391 8.52009 20.4142C8.89516 20.7893 9.40387 21 9.9343 21H10.3743C10.9047 21 11.4134 20.7893 11.7885 20.4142C12.1636 20.0391 12.3743 19.5304 12.3743 19V18.82C12.3747 18.4693 12.4672 18.1248 12.6428 17.8212C12.8183 17.5175 13.0706 17.2654 13.3743 17.09L13.8043 16.84C14.1083 16.6645 14.4532 16.5721 14.8043 16.5721C15.1554 16.5721 15.5003 16.6645 15.8043 16.84L15.9543 16.92C16.4132 17.1847 16.9585 17.2566 17.4703 17.1197C17.9821 16.9828 18.4187 16.6485 18.6843 16.19L18.9043 15.8C19.169 15.3411 19.2409 14.7958 19.104 14.284C18.9671 13.7722 18.6328 13.3356 18.1743 13.07L18.0243 12.99C17.7191 12.8138 17.4659 12.5601 17.2903 12.2545C17.1146 11.949 17.0229 11.6024 17.0243 11.25V10.75C17.0229 10.3976 17.1146 10.051 17.2903 9.74549C17.4659 9.43994 17.7191 9.18621 18.0243 9.01L18.1743 8.92C18.6328 8.65445 18.9671 8.21783 19.104 7.706C19.2409 7.19416 19.169 6.64893 18.9043 6.19L18.6843 5.81C18.4187 5.35154 17.9821 5.01717 17.4703 4.88031C16.9585 4.74344 16.4132 4.81526 15.9543 5.08L15.8043 5.16C15.5003 5.33554 15.1554 5.42795 14.8043 5.42795C14.4532 5.42795 14.1083 5.33554 13.8043 5.16L13.3743 4.91C13.0706 4.73464 12.8183 4.48248 12.6428 4.17884C12.4672 3.87519 12.3747 3.53073 12.3743 3.18V3C12.3743 2.46957 12.1636 1.96086 11.7885 1.58579C11.4134 1.21071 10.9047 1 10.3743 1Z" stroke="#676E8B" stroke-width="1.5" stroke-linecap="round" stroke-linejoin="round"/>
<path d="M10.1543 14C11.8112 14 13.1543 12.6569 13.1543 11C13.1543 9.34315 11.8112 8 10.1543 8C8.49744 8 7.1543 9.34315 7.1543 11C7.1543 12.6569 8.49744 14 10.1543 14Z" stroke="#676E8B" stroke-width="1.5" stroke-linecap="round" stroke-linejoin="round"/>
</svg>
