<svg width="21" height="18" viewBox="0 0 21 18" fill="none" xmlns="http://www.w3.org/2000/svg">
<path fill-rule="evenodd" clip-rule="evenodd" d="M8.61609 0.526154C7.90785 0.681522 7.35238 1.34611 7.22609 2.18921C7.20286 2.3441 7.19129 2.35375 6.84155 2.50908C4.37407 3.60505 2.42003 6.00835 1.65514 8.88784C1.38391 9.90899 1.30129 10.7486 1.30059 12.4908L1.30012 13.692L1.0457 13.8389C0.420671 14.2 0.0417648 15.0487 0.157419 15.8285C0.281558 16.6654 0.840592 17.3149 1.56982 17.4694C1.86087 17.531 18.4126 17.531 18.7036 17.4694C19.4328 17.3149 19.9919 16.6654 20.116 15.8285C20.2317 15.0487 19.8528 14.2 19.2277 13.8389L18.9733 13.692L18.9728 12.4908C18.9723 11.1616 18.9347 10.5235 18.8145 9.8045C18.4285 7.49577 17.2491 5.35219 15.5519 3.87433C14.948 3.34847 14.1172 2.81348 13.4319 2.50908C13.0821 2.35375 13.0706 2.3441 13.0473 2.18921C12.9183 1.32772 12.366 0.680081 11.6267 0.523489C11.3735 0.469807 8.86272 0.472034 8.61609 0.526154ZM11.5844 1.87721C11.6837 1.93382 11.7668 2.02659 11.8175 2.13758C11.8944 2.30597 11.8962 2.38857 11.8962 5.72045C11.8962 9.05234 11.898 9.13494 11.9749 9.30332C12.0634 9.49713 12.2886 9.65162 12.4826 9.65162C12.6767 9.65162 12.9019 9.49713 12.9904 9.30332C13.0668 9.13612 13.0691 9.05072 13.0691 6.44532V3.75967L13.2939 3.86966C13.4176 3.93015 13.6815 4.08142 13.8804 4.20577L14.2421 4.4319L14.2421 6.12624C14.2421 7.7381 14.2459 7.82896 14.3208 7.99293C14.4093 8.18674 14.6346 8.34123 14.8286 8.34123C15.0226 8.34123 15.2478 8.18674 15.3363 7.99293C15.4094 7.83289 15.4151 7.73697 15.4151 6.65201V5.48349L15.6151 5.70027C16.0668 6.18962 16.6684 7.12834 16.9958 7.85464C17.2012 8.31031 17.472 9.13935 17.5864 9.66281C17.7466 10.3958 17.8001 11.0785 17.8001 12.3923V13.5828H10.1367H2.47336V12.3923C2.47336 11.0785 2.52681 10.3958 2.68703 9.66281C2.80143 9.13935 3.07223 8.31031 3.27762 7.85464C3.60503 7.12834 4.20665 6.18962 4.65831 5.70027L4.85838 5.48349V6.65201C4.85838 7.73697 4.86401 7.83289 4.93709 7.99293C5.02561 8.18674 5.25086 8.34123 5.44486 8.34123C5.63887 8.34123 5.86412 8.18674 5.95264 7.99293C6.02751 7.82896 6.03135 7.7381 6.03135 6.12624L6.03139 4.4319L6.39301 4.20577C6.59195 4.08142 6.85586 3.93015 6.97949 3.86966L7.20431 3.75967V6.44532C7.20431 9.05072 7.20666 9.13612 7.28302 9.30332C7.37154 9.49713 7.59678 9.65162 7.79079 9.65162C7.9848 9.65162 8.21005 9.49713 8.29857 9.30332C8.37547 9.13494 8.37727 9.05234 8.37727 5.72045C8.37727 2.38992 8.37911 2.30593 8.4559 2.13776C8.50395 2.03253 8.59138 1.93207 8.68072 1.87935C8.81756 1.79863 8.90992 1.79304 10.1285 1.7912C11.3577 1.78937 11.4387 1.79417 11.5844 1.87721ZM18.6613 14.9811C18.8348 15.08 18.973 15.3316 18.973 15.5484C18.973 15.7651 18.8348 16.0168 18.6613 16.1156C18.508 16.203 18.4485 16.2036 10.1367 16.2036C1.82498 16.2036 1.7654 16.203 1.61217 16.1156C1.43869 16.0168 1.30039 15.7651 1.30039 15.5484C1.30039 15.3383 1.43876 15.0806 1.60384 14.9833C1.74804 14.8982 1.86392 14.897 10.1285 14.8951C18.4502 14.8932 18.508 14.8938 18.6613 14.9811Z" fill="#676E8B"/>
</svg>
