<svg width="21" height="26" viewBox="0 0 21 26" fill="none" xmlns="http://www.w3.org/2000/svg">
<path fill-rule="evenodd" clip-rule="evenodd" d="M10.1095 0C13.49 0 13.5987 0 13.9139 0.100947C14.0932 0.161515 14.3595 0.267509 14.5063 0.343219C14.6476 0.418929 14.8976 0.605681 15.0552 0.757101C15.2128 0.908521 15.4085 1.16594 15.653 1.61515H16.74C17.5335 1.61515 17.9085 1.63534 18.1422 1.69086C18.3106 1.73124 18.5824 1.82714 18.7345 1.90285C18.8922 1.97351 19.1585 2.15521 19.3215 2.29654C19.4845 2.44291 19.6965 2.69528 19.7943 2.8568C19.8867 3.02336 20.0008 3.28077 20.0498 3.43219C20.1313 3.68456 20.1367 4.67889 20.1367 13.7035C20.1367 22.4405 20.1258 23.7326 20.0552 23.99C20.0117 24.1465 19.9085 24.3988 19.8269 24.5402C19.7508 24.6865 19.5606 24.9288 19.4085 25.0802C19.2563 25.2266 19.0335 25.4033 18.9139 25.4689C18.7943 25.5345 18.5389 25.6455 17.99 25.8424H2.28346L1.9302 25.7162C1.73454 25.6455 1.47911 25.5345 1.35954 25.4689C1.23998 25.4033 1.01715 25.2266 0.86498 25.0802C0.712806 24.9288 0.528023 24.6916 0.451936 24.5553C0.375849 24.414 0.272588 24.1768 0.223675 24.0253C0.142153 23.773 0.136719 22.8241 0.136719 13.754C0.136719 5.01706 0.147588 3.72494 0.21824 3.46752C0.261719 3.31106 0.364979 3.05869 0.446501 2.91736C0.522588 2.77099 0.71824 2.52367 0.870414 2.37225C1.02802 2.22083 1.29976 2.02398 1.47368 1.93313C1.65302 1.84733 1.94107 1.73629 2.12041 1.69591C2.36498 1.63534 2.71824 1.61515 4.62041 1.61515L4.77802 1.32745C4.86498 1.16594 5.06063 0.913569 5.21281 0.762149C5.36498 0.615776 5.59868 0.434071 5.73454 0.363409C5.87041 0.287698 6.12585 0.176657 6.3052 0.116089C6.63128 0.00504734 6.65302 0.00504734 10.1095 0ZM6.40302 1.91294C6.33781 1.99875 6.26172 2.14512 6.24541 2.23597C6.22911 2.32178 6.22911 2.48329 6.24541 2.58929C6.26172 2.70033 6.34868 2.85175 6.45737 2.95774C6.54976 3.05364 6.71824 3.15964 6.8215 3.18487C6.94107 3.21516 8.26172 3.2303 10.2563 3.2202C13.4628 3.20506 13.5008 3.20506 13.653 3.09907C13.7345 3.0385 13.8541 2.92746 13.9139 2.8568C13.9954 2.75585 14.0226 2.63976 14.0226 2.42272C14.0226 2.20064 13.9954 2.09465 13.9085 1.98361C13.8432 1.90789 13.7237 1.79685 13.6476 1.74133C13.5008 1.64543 13.403 1.64039 10.2019 1.63029C7.54976 1.6202 6.86498 1.63029 6.71824 1.68581C6.61498 1.72114 6.47368 1.82209 6.40302 1.91294ZM2.0552 3.52809C1.98998 3.6139 1.91933 3.76027 1.90302 3.85112C1.88672 3.93693 1.88128 8.4442 1.88672 13.865L1.90302 23.7175C2.08237 23.9345 2.20194 24.0455 2.27802 24.1011C2.42476 24.202 2.51172 24.202 10.1367 24.202C17.7617 24.202 17.8487 24.202 17.9954 24.1011C18.0715 24.0455 18.1911 23.9345 18.2563 23.8588L18.3704 23.7175V3.74008C18.1911 3.52304 18.0715 3.412 17.9954 3.35648C17.8595 3.26563 17.7454 3.25554 16.7508 3.24039L15.653 3.22525C15.3758 3.72999 15.1748 3.9773 14.99 4.14387C14.8161 4.30033 14.5443 4.48709 14.3867 4.55775C14.2345 4.63346 13.9628 4.72936 13.7889 4.76974C13.528 4.83535 12.9356 4.84545 10.1367 4.84545C7.33781 4.84545 6.74541 4.83535 6.47911 4.76974C6.31063 4.72936 6.03889 4.63346 5.88128 4.55775C5.72911 4.48709 5.45737 4.30033 5.28346 4.14387C5.10411 3.98235 4.89215 3.72494 4.79433 3.54828L4.62041 3.2303C2.86498 3.23535 2.50085 3.25554 2.37041 3.30096C2.26715 3.33629 2.12585 3.43724 2.0552 3.52809ZM15.5443 8.53001C15.74 8.53001 15.8704 8.56029 16.0008 8.64105C16.1041 8.70666 16.2345 8.8278 16.2889 8.90856C16.3432 8.99436 16.3922 9.16092 16.3922 9.28711C16.3976 9.41329 16.3595 9.5849 16.3161 9.66566C16.2726 9.75146 14.6585 11.7351 12.7345 14.077C10.8106 16.419 9.16933 18.3824 9.0878 18.443C8.97367 18.5237 8.85411 18.549 8.62041 18.549C8.41933 18.549 8.26172 18.5187 8.16389 18.4632C8.08237 18.4127 7.25628 17.6152 6.32694 16.6966C5.39759 15.7729 4.59868 14.9351 4.5552 14.8392C4.50085 14.7231 4.48454 14.5818 4.50085 14.4354C4.51715 14.3092 4.57694 14.1527 4.63672 14.0821C4.6965 14.0114 4.79976 13.9155 4.87041 13.865C4.94107 13.8146 5.09868 13.7641 5.21824 13.7439C5.33781 13.7288 5.52802 13.7439 5.64215 13.7742C5.8052 13.8196 6.09868 14.0871 7.19107 15.1673C7.9302 15.8991 8.54433 16.4947 8.56063 16.4846C8.57694 16.4745 10.0172 14.7231 11.7617 12.5881C13.7019 10.2259 15.0063 8.67638 15.1041 8.62086C15.2074 8.56534 15.3813 8.53001 15.5443 8.53001Z" fill="#676E8B"/>
</svg>
