<svg width="21" height="24" viewBox="0 0 21 24" fill="none" xmlns="http://www.w3.org/2000/svg">
<path d="M10.4077 11.5633C12.0622 11.5633 13.4946 10.9969 14.6653 9.87936C15.8357 8.76203 16.4292 7.3949 16.4292 5.81549C16.4292 4.23662 15.8359 2.86932 14.6651 1.75162C13.4944 0.634473 12.062 0.0680695 10.4077 0.0680695C8.75311 0.0680695 7.32088 0.634473 6.15034 1.7518C4.9798 2.86914 4.38623 4.23644 4.38623 5.81549C4.38623 7.3949 4.9798 8.76221 6.15034 9.87954C7.32126 10.9967 8.75368 11.5633 10.4077 11.5633ZM7.18641 2.7406C8.08458 1.88326 9.1382 1.46651 10.4077 1.46651C11.6771 1.46651 12.7309 1.88326 13.6292 2.7406C14.5274 3.59812 14.9642 4.60403 14.9642 5.81549C14.9642 7.02731 14.5274 8.03304 13.6292 8.89056C12.7309 9.74809 11.6771 10.1648 10.4077 10.1648C9.13858 10.1648 8.08496 9.74791 7.18641 8.89056C6.28805 8.03322 5.85126 7.02731 5.85126 5.81549C5.85126 4.60403 6.28805 3.59812 7.18641 2.7406Z" fill="#676E8B"/>
<path d="M20.9438 18.4183C20.91 17.9533 20.8418 17.4461 20.7412 16.9104C20.6398 16.3708 20.5091 15.8606 20.3527 15.3944C20.191 14.9125 19.9714 14.4365 19.6996 13.9805C19.4179 13.5071 19.0868 13.0949 18.7152 12.7557C18.3267 12.4009 17.851 12.1156 17.3009 11.9075C16.7528 11.7005 16.1453 11.5956 15.4955 11.5956C15.2402 11.5956 14.9934 11.6955 14.5168 11.9918C14.2234 12.1744 13.8803 12.3856 13.4973 12.6192C13.1698 12.8183 12.7262 13.005 12.1782 13.1739C11.6436 13.339 11.1007 13.4228 10.5648 13.4228C10.0292 13.4228 9.48635 13.339 8.95134 13.1739C8.40393 13.0051 7.96009 12.8185 7.63317 12.6193C7.2538 12.3879 6.91048 12.1767 6.61274 11.9916C6.13647 11.6954 5.88966 11.5954 5.63446 11.5954C4.98444 11.5954 4.37714 11.7005 3.82915 11.9077C3.27946 12.1154 2.80357 12.4007 2.41467 12.7559C2.04311 13.0953 1.712 13.5073 1.43047 13.9805C1.15906 14.4365 0.939331 14.9123 0.777588 15.3946C0.621376 15.8608 0.490723 16.3708 0.389252 16.9104C0.288544 17.4453 0.220451 17.9527 0.186691 18.4188C0.153503 18.8745 0.136719 19.3488 0.136719 19.828C0.136719 21.0737 0.551567 22.0822 1.36963 22.8259C2.17758 23.5598 3.24646 23.9319 4.5467 23.9319H16.5844C17.8842 23.9319 18.9531 23.5598 19.7612 22.8259C20.5795 22.0827 20.9943 21.0739 20.9943 19.8278C20.9941 19.347 20.9772 18.8727 20.9438 18.4183ZM18.7511 21.8127C18.2172 22.2977 17.5085 22.5335 16.5842 22.5335H4.5467C3.62221 22.5335 2.91344 22.2977 2.37976 21.8129C1.85619 21.3372 1.60175 20.6877 1.60175 19.828C1.60175 19.3809 1.6172 18.9394 1.6481 18.5155C1.67824 18.0997 1.73985 17.6429 1.83121 17.1575C1.92142 16.6781 2.03625 16.2282 2.17281 15.821C2.30385 15.4304 2.48257 15.0437 2.7042 14.6712C2.91573 14.3162 3.1591 14.0116 3.42766 13.7662C3.67886 13.5366 3.99548 13.3487 4.36855 13.2078C4.71359 13.0774 5.10136 13.0061 5.52231 12.9953C5.57362 13.0213 5.66498 13.071 5.81299 13.1632C6.11416 13.3505 6.4613 13.5643 6.84505 13.7982C7.27764 14.0615 7.83497 14.2993 8.50082 14.5044C9.18156 14.7145 9.87583 14.8212 10.565 14.8212C11.2541 14.8212 11.9485 14.7145 12.6289 14.5046C13.2953 14.2991 13.8525 14.0615 14.2856 13.7979C14.6783 13.5583 15.0158 13.3507 15.3169 13.1632C15.4649 13.0712 15.5563 13.0213 15.6076 12.9953C16.0287 13.0061 16.4165 13.0774 16.7617 13.2078C17.1346 13.3487 17.4512 13.5368 17.7024 13.7662C17.971 14.0114 18.2144 14.316 18.4259 14.6714C18.6477 15.0437 18.8266 15.4306 18.9575 15.8208C19.0942 16.2286 19.2093 16.6783 19.2993 17.1573C19.3904 17.6436 19.4522 18.1006 19.4824 18.5157V18.5161C19.5135 18.9383 19.5291 19.3796 19.5293 19.828C19.5291 20.6879 19.2747 21.3372 18.7511 21.8127Z" fill="#676E8B"/>
</svg>
